PathFileType  4	(X/Y/Z) C:\Users\wagnerel85475\Documents\Thesis\opencap-core\Data\3375ffbc-daeb-4a43-b4f7-ac9899cd4c71\MarkerData\PreAugmentation
DataRate	CameraRate	NumFrames	NumMarkers	Units	OrigDataRate	OrigDataStartFrame	OrigNumFrames
60.0	60.0	18	20	m	60.0	321	641
Frame#	Time	Neck			RShoulder			RElbow			RWrist			LShoulder			LElbow			LWrist			midHip			RHip			RKnee			RAnkle			LHip			LKnee			LAnkle			LBigToe			LSmallToe			LHeel			RBigToe			RSmallToe			RHeel			
		X1	Y1	Z1	X2	Y2	Z2	X3	Y3	Z3	X4	Y4	Z4	X5	Y5	Z5	X6	Y6	Z6	X7	Y7	Z7	X8	Y8	Z8	X9	Y9	Z9	X10	Y10	Z10	X11	Y11	Z11	X12	Y12	Z12	X13	Y13	Z13	X14	Y14	Z14	X15	Y15	Z15	X16	Y16	Z16	X17	Y17	Z17	X18	Y18	Z18	X19	Y19	Z19	X20	Y20	Z20	

321	5.3333333	0.8135100	0.6368800	-0.0587900	0.7949700	0.6367200	0.1048800	1.0043200	0.4875300	0.1772600	1.3438800	0.5311800	0.0887600	0.8462300	0.6342600	-0.2300800	1.1325600	0.4561800	-0.2720700	1.3856100	0.5260500	-0.1124400	0.3448500	0.2734700	-0.0917300	0.3766800	0.2774700	0.0254100	0.8416000	0.2661600	0.1317200	0.5414500	-0.1889600	0.0878200	0.3611200	0.2726900	-0.2025800	0.8105600	0.2697100	-0.3053200	0.5684100	-0.1668800	-0.2750700	0.7716600	-0.2205200	-0.3261100	0.7098500	-0.2242900	-0.3625200	0.4688000	-0.2314800	-0.2657200	0.7207400	-0.2265500	0.2024400	0.6708300	-0.2339700	0.2302000	0.4854800	-0.2304100	0.0549000
322	5.3500000	0.8215300	0.6534700	-0.0632300	0.7957700	0.6566500	0.0963600	1.0048200	0.5071700	0.1783800	1.3594500	0.5489400	0.0869200	0.8483700	0.6507800	-0.2372400	1.1182200	0.4707100	-0.2646300	1.3816500	0.5459100	-0.1109800	0.3211300	0.2767000	-0.0911900	0.3545300	0.2783300	0.0264000	0.8302900	0.2684600	0.1303400	0.5410400	-0.1931900	0.0869200	0.3310300	0.2962800	-0.2228700	0.8120700	0.2732000	-0.3044800	0.5695000	-0.1627300	-0.2744000	0.7710300	-0.2172000	-0.3255400	0.7105500	-0.2205200	-0.3620400	0.4695600	-0.2350900	-0.2650400	0.7214400	-0.2262200	0.2025800	0.6700600	-0.2340800	0.2305200	0.4851200	-0.2339500	0.0553900
323	5.3666667	0.8221300	0.6735700	-0.0642100	0.8049500	0.6768900	0.0994600	1.0114400	0.5245200	0.1797400	1.3438900	0.5718400	0.0887100	0.8279400	0.6684600	-0.2390600	1.1315200	0.4932200	-0.2709300	1.3821000	0.5581500	-0.1105200	0.2961300	0.2906400	-0.0795200	0.3096800	0.2826500	0.0380600	0.8184500	0.2662200	0.1195600	0.5413800	-0.1892000	0.0878600	0.3095900	0.3033800	-0.2063500	0.8017100	0.2744700	-0.3015700	0.5684000	-0.1630100	-0.2745500	0.7715200	-0.2205000	-0.3260800	0.7104000	-0.2275000	-0.3618800	0.4691400	-0.2353100	-0.2650700	0.7211400	-0.2263600	0.2025400	0.6710700	-0.2335500	0.2303100	0.4780100	-0.2429200	0.0611700
324	5.3833333	0.8211600	0.6969500	-0.0630300	0.8127900	0.6938200	0.1034600	1.0094800	0.5377900	0.1799100	1.3518900	0.5808000	0.0844900	0.8380600	0.6924800	-0.2341900	1.1170900	0.5053300	-0.2657800	1.4061200	0.5805500	-0.1252600	0.2841400	0.3043000	-0.0748900	0.3386500	0.3111900	0.0353600	0.8088900	0.2675600	0.1169200	0.5407400	-0.1894800	0.0876200	0.3077000	0.3130200	-0.1964900	0.8030600	0.2742600	-0.3011800	0.5696400	-0.1626700	-0.2744000	0.7707000	-0.2208500	-0.3261600	0.7109000	-0.2274600	-0.3619800	0.4696100	-0.2350400	-0.2650300	0.7216000	-0.2261200	0.2026400	0.6701600	-0.2338300	0.2305900	0.4773900	-0.2432900	0.0610500
325	5.4000000	0.8110700	0.7094100	-0.0665300	0.7934100	0.7147500	0.0968900	1.0038500	0.5592500	0.1773500	1.3650800	0.6164600	0.0595000	0.8273000	0.7083200	-0.2457800	1.1310800	0.5274600	-0.2785000	1.3875600	0.5996400	-0.1142900	0.3088400	0.3269600	-0.0856500	0.3419100	0.3328000	0.0313600	0.8087500	0.2639200	0.1163200	0.5413500	-0.1925200	0.0885500	0.3276100	0.3328300	-0.1980900	0.8013600	0.2743500	-0.3015400	0.5781100	-0.1598300	-0.2784300	0.7718000	-0.2204800	-0.3261200	0.7106200	-0.2275200	-0.3619400	0.4696500	-0.2353500	-0.2650800	0.7210800	-0.2263900	0.2026100	0.6704900	-0.2367500	0.2309700	0.4781100	-0.2434400	0.0613200
326	5.4166667	0.8130000	0.7316000	-0.0677800	0.7941600	0.7306600	0.0966500	1.0017000	0.5810400	0.1775300	1.3572300	0.6258000	0.0809400	0.8364800	0.7327900	-0.2429100	1.1309400	0.5480600	-0.2797500	1.3911200	0.6100800	-0.1238000	0.3191700	0.3420800	-0.0909700	0.3562500	0.3473900	0.0313800	0.8099100	0.2636300	0.1153300	0.5503500	-0.1895900	0.0913400	0.3270600	0.3660100	-0.2059200	0.7775600	0.2705900	-0.2977700	0.5792300	-0.1594600	-0.2782400	0.7707000	-0.2244100	-0.3268100	0.7194700	-0.2246200	-0.3581200	0.4699200	-0.2349600	-0.2649800	0.7213300	-0.2262900	0.2026600	0.6693200	-0.2370100	0.2312500	0.4774500	-0.2435100	0.0612500
327	5.4333333	0.8191600	0.7613100	-0.0632700	0.8020300	0.7607400	0.1003500	1.0117500	0.5966200	0.1797900	1.3687500	0.6435900	0.0725000	0.8260500	0.7590500	-0.2461500	1.1301000	0.5692100	-0.2793700	1.3988500	0.6497200	-0.1205500	0.3380300	0.3758000	-0.0986100	0.3568800	0.3656400	0.0314000	0.8000400	0.2683400	0.1122700	0.5414200	-0.1957400	0.0892800	0.3584000	0.3884800	-0.2204300	0.7759100	0.2707600	-0.2981300	0.5778300	-0.1636900	-0.2790500	0.7714200	-0.2242300	-0.3266700	0.7182400	-0.2250700	-0.3592500	0.4691300	-0.2387400	-0.2657100	0.7207400	-0.2266200	0.2028200	0.6620300	-0.2395100	0.2356400	0.4793300	-0.2463700	0.0619800
328	5.4500000	0.8111700	0.7856400	-0.0676100	0.7940700	0.7839500	0.0964200	1.0011900	0.6217000	0.1775600	1.3531500	0.6728700	0.0604200	0.8179300	0.7849700	-0.2505500	1.1087300	0.5884300	-0.2913600	1.3834500	0.6586700	-0.1269500	0.3492000	0.3928700	-0.0959100	0.3745800	0.4002400	0.0308900	0.7899700	0.2765400	0.1097000	0.5407500	-0.1960500	0.0890300	0.3869900	0.4077300	-0.2164100	0.7773900	0.2704400	-0.2977700	0.5694500	-0.1666700	-0.2749600	0.7705000	-0.2245400	-0.3267500	0.7105600	-0.2313600	-0.3625100	0.4694900	-0.2387300	-0.2655700	0.7211000	-0.2264400	0.2027600	0.6690400	-0.2369500	0.2313300	0.4787400	-0.2467200	0.0618600
329	5.4666667	0.8092100	0.8110900	-0.0668700	0.7923700	0.7993900	0.0968500	0.9941800	0.6442100	0.1741200	1.3502900	0.6891200	0.0532200	0.8076200	0.8151800	-0.2465100	1.0681400	0.6124300	-0.3032700	1.3802100	0.6742400	-0.1392700	0.3720100	0.4177000	-0.0969300	0.3833200	0.4171000	0.0349400	0.7894300	0.2764900	0.1097000	0.5410900	-0.1925800	0.0887000	0.3858400	0.4347400	-0.2174400	0.7842800	0.2729600	-0.3020900	0.5682300	-0.1670300	-0.2751500	0.7713400	-0.2241800	-0.3267300	0.7095300	-0.2280300	-0.3630900	0.4695000	-0.2428200	-0.2650100	0.7208000	-0.2265000	0.2027000	0.6697800	-0.2331900	0.2317300	0.4792000	-0.2459800	0.0619900
330	5.4833333	0.8004400	0.8291100	-0.0707400	0.7916400	0.8321100	0.0970100	0.9577300	0.6793600	0.1626800	1.3278900	0.7182400	0.0378800	0.8166300	0.8294800	-0.2505400	1.0698700	0.6311800	-0.3181800	1.3487700	0.6953500	-0.1439100	0.3678800	0.4381400	-0.0958000	0.3754400	0.4356400	0.0368700	0.7901000	0.2797200	0.1093600	0.5501200	-0.1896100	0.0914200	0.3770400	0.4509000	-0.2200300	0.7773800	0.2736500	-0.2986300	0.5601300	-0.1697100	-0.2787200	0.7616500	-0.2277200	-0.3231600	0.7009700	-0.2311600	-0.3595800	0.4600200	-0.2458500	-0.2687700	0.7211400	-0.2264800	0.2027300	0.6607700	-0.2364500	0.2364500	0.4882900	-0.2426900	0.0649700
331	5.5000000	0.7908300	0.8493300	-0.0747900	0.7920100	0.8469400	0.0966300	0.9758600	0.6982700	0.1679800	1.3290000	0.7294000	0.0518900	0.8139900	0.8592500	-0.2511800	1.0213500	0.6422100	-0.3341700	1.3560400	0.7100900	-0.1478700	0.3688000	0.4506200	-0.0955400	0.3763300	0.4509400	0.0362000	0.7815900	0.2843800	0.1136400	0.5411000	-0.1883300	0.0893000	0.3750200	0.4539600	-0.2214400	0.7773300	0.2800700	-0.3000200	0.5589800	-0.1700800	-0.2790100	0.7626100	-0.2273900	-0.3230000	0.7094400	-0.2280400	-0.3630800	0.4594800	-0.2461000	-0.2689100	0.7207200	-0.2267200	0.2028100	0.6616200	-0.2361900	0.2362700	0.4791600	-0.2459300	0.0619800
332	5.5166667	0.7899500	0.8798100	-0.0742100	0.7904000	0.8767100	0.0971300	1.0037600	0.7276400	0.1649800	1.3524200	0.7508800	0.0531600	0.8072800	0.8805100	-0.2469100	1.0062000	0.6496000	-0.3356900	1.3657600	0.7426300	-0.1540000	0.3680500	0.4657800	-0.0964800	0.3857200	0.4707700	0.0315200	0.7647300	0.2799100	0.1149700	0.5401600	-0.1855000	0.0884000	0.3852800	0.4745300	-0.2171400	0.7698200	0.2857200	-0.3034500	0.5602100	-0.1696200	-0.2787500	0.7701900	-0.2213900	-0.3198100	0.7094000	-0.2246200	-0.3562400	0.4597900	-0.2457300	-0.2688400	0.7211900	-0.2265400	0.2026100	0.6687100	-0.2337000	0.2319000	0.4767500	-0.2426800	0.0612300
333	5.5333333	0.7713400	0.9017900	-0.0823700	0.7803700	0.9008700	0.0937400	0.9649300	0.7525500	0.1575700	1.3211700	0.7728300	0.0490000	0.8040100	0.9059500	-0.2555100	1.0082300	0.6848000	-0.3364100	1.3569000	0.7539500	-0.1556800	0.3684300	0.4902300	-0.0961700	0.3858400	0.4898700	0.0314100	0.7552300	0.2816100	0.1200700	0.5406300	-0.1852000	0.0886800	0.3835300	0.4981400	-0.2092600	0.7598600	0.2887400	-0.3005300	0.5681800	-0.1670500	-0.2752100	0.7797400	-0.2176000	-0.3146400	0.7092300	-0.2281200	-0.3555200	0.4595200	-0.2459800	-0.2689400	0.7208700	-0.2267800	0.2027000	0.6616500	-0.2363900	0.2362200	0.4770800	-0.2423300	0.0613700
334	5.5500000	0.7702400	0.9253200	-0.0820400	0.7747500	0.9218800	0.0976400	0.9946100	0.7774500	0.1618800	1.3312900	0.7973400	0.0512100	0.7966400	0.9334200	-0.2510200	1.0134100	0.7039600	-0.3403900	1.3487900	0.7781700	-0.1517200	0.3779500	0.5083000	-0.0920900	0.3826800	0.5045100	0.0323700	0.7471800	0.2798900	0.1247100	0.5399800	-0.1854200	0.0883600	0.3856900	0.5158500	-0.2162400	0.7495100	0.2975600	-0.3025600	0.5694100	-0.1667400	-0.2749900	0.7790300	-0.2177800	-0.3146800	0.7096300	-0.2279500	-0.3555300	0.4600500	-0.2458600	-0.2688800	0.7214300	-0.2265500	0.2026400	0.6692400	-0.2305500	0.2313300	0.4752100	-0.2369800	0.0600400
335	5.5666667	0.7610900	0.9595000	-0.0860900	0.7797000	0.9561700	0.0935600	0.9651700	0.8011900	0.1575600	1.3193200	0.8234900	0.0422700	0.8026700	0.9605200	-0.2559900	1.0045200	0.7132000	-0.3434200	1.3527400	0.8000600	-0.1615300	0.3793500	0.5241900	-0.0927600	0.3856600	0.5276800	0.0311100	0.7391500	0.2811200	0.1287600	0.5318600	-0.1880400	0.0930000	0.4033700	0.5373300	-0.2184100	0.7390700	0.2958700	-0.2990900	0.5776100	-0.1639300	-0.2791000	0.7707000	-0.2176700	-0.3113900	0.7175600	-0.2217600	-0.3522400	0.4597400	-0.2460400	-0.2690100	0.7210200	-0.2266700	0.2026300	0.6701100	-0.2302900	0.2310700	0.4763500	-0.2395900	0.0608400
336	5.5833333	0.7599700	0.9763000	-0.0859500	0.7627700	0.9774200	0.0947500	0.9870500	0.8254200	0.1662400	1.3422000	0.8402600	0.0440800	0.7952400	0.9871600	-0.2516900	1.0124500	0.7559000	-0.3402800	1.3535000	0.8232800	-0.1619700	0.3790800	0.5397600	-0.0935400	0.3744200	0.5376100	0.0275700	0.7312800	0.2793700	0.1332500	0.5312600	-0.1842400	0.0934900	0.4042800	0.5493300	-0.2094200	0.7309300	0.2969600	-0.3021900	0.5602700	-0.1734400	-0.2793200	0.7783500	-0.2147400	-0.3153200	0.7092300	-0.2245500	-0.3562100	0.4697900	-0.2426100	-0.2650200	0.7213800	-0.2265200	0.2025300	0.6689200	-0.2336000	0.2318600	0.4755100	-0.2401000	0.0608100
337	5.6000000	0.7599400	1.0112900	-0.0863100	0.7691100	1.0147100	0.0904100	0.9631600	0.8488300	0.1572400	1.3251400	0.8625100	0.0381200	0.7931200	1.0081100	-0.2599800	1.0186200	0.7752400	-0.3428200	1.3268000	0.8432500	-0.1539200	0.3908700	0.5582700	-0.0895200	0.3860600	0.5573200	0.0308700	0.7293100	0.2831500	0.1337000	0.5320500	-0.1869900	0.0943800	0.4028600	0.5611400	-0.2102600	0.7205200	0.2989100	-0.3070100	0.5591000	-0.1701200	-0.2790600	0.7793600	-0.2144200	-0.3151600	0.7178400	-0.2216300	-0.3523500	0.4694300	-0.2428000	-0.2651500	0.7207700	-0.2266000	0.2026000	0.6695300	-0.2332900	0.2316900	0.4688400	-0.2490100	0.0665400
338	5.6166667	0.7507100	1.0269500	-0.0897500	0.7624600	1.0250300	0.0947200	0.9785800	0.8673400	0.1635000	1.3194700	0.8825700	0.0348100	0.7941200	1.0274100	-0.2597800	0.9608700	0.8157900	-0.3163400	1.3334300	0.8639800	-0.1580200	0.3879500	0.5779200	-0.0887900	0.3814100	0.5755600	0.0321200	0.7210900	0.2847100	0.1303200	0.5311500	-0.1916700	0.0935900	0.4043000	0.5789000	-0.2088800	0.7123400	0.3000200	-0.3024700	0.5601200	-0.1696500	-0.2787300	0.7697100	-0.2179700	-0.3116200	0.7095900	-0.2210000	-0.3569500	0.4601200	-0.2457900	-0.2688500	0.7213400	-0.2264800	0.2024800	0.6688700	-0.2336000	0.2318600	0.4682300	-0.2493500	0.0664100
